<svg xmlns="http://www.w3.org/2000/svg" width="40" height="40" viewBox="0 0 40 40">
  <g fill="none" fill-rule="evenodd">
    <rect width="40" height="40" fill="#2E3440" rx="4"/>
    <path fill="#88C0D0" d="M20,8 C25.523,8 30,12.477 30,18 C30,23.523 25.523,28 20,28 C14.477,28 10,23.523 10,18 C10,12.477 14.477,8 20,8 Z M20,12 C16.686,12 14,14.686 14,18 C14,21.314 16.686,24 20,24 C23.314,24 26,21.314 26,18 C26,14.686 23.314,12 20,12 Z"/>
    <path fill="#5E81AC" d="M17,32 L23,32 L23,36 L17,36 L17,32 Z"/>
  </g>
</svg>
